<svg xmlns="http://www.w3.org/2000/svg" viewBox="0 0 24 24" width="24" height="24" fill="#9aa5b1"><path d="M12 .5C5.73.5.5 5.73.5 12c0 5.08 3.29 9.39 7.86 10.92.58.1.8-.25.8-.56 0-.28-.01-1.02-.02-2-3.19.69-3.86-1.39-3.86-1.39-.52-1.33-1.27-1.68-1.27-1.68-1.04-.71.08-.7.08-.7 1.15.08 1.75 1.19 1.75 1.19 1.02 1.76 2.68 1.25 3.33.96.1-.75.4-1.25.72-1.54-2.55-.29-5.24-1.28-5.24-5.7 0-1.26.46-2.29 1.21-3.09-.12-.3-.53-1.5.11-3.13 0 0 .98-.31 3.22 1.19A11.14 11.14 0 0112 6.85c.99.01 1.98.13 2.91.38 2.24-1.5 3.22-1.19 3.22-1.19.64 1.63.23 2.83.11 3.13.76.8 1.21 1.83 1.21 3.09 0 4.43-2.7 5.41-5.27 5.69.41.36.78 1.08.78 2.17 0 1.57-.01 2.85-.01 3.23 0 .31.22.66.81.55A10.51 10.51 0 0023.5 12C23.5 5.73 18.27.5 12 .5z"/></svg>